<?xml version="1.0" encoding="UTF-8" standalone="no"?>
<svg
   xmlns:dc="http://purl.org/dc/elements/1.1/"
   xmlns:cc="http://creativecommons.org/ns#"
   xmlns:rdf="http://www.w3.org/1999/02/22-rdf-syntax-ns#"
   xmlns:svg="http://www.w3.org/2000/svg"
   xmlns="http://www.w3.org/2000/svg"
   xmlns:sodipodi="http://sodipodi.sourceforge.net/DTD/sodipodi-0.dtd"
   xmlns:inkscape="http://www.inkscape.org/namespaces/inkscape"
   width="60mm"
   height="60mm"
   viewBox="0 0 60 60"
   version="1.1"
   id="svg64973"
   sodipodi:docname="konveyor-logo-konveyor.svg"
   inkscape:version="1.0.1 (3bc2e813f5, 2020-09-07)">
  <defs
     id="defs64967" />
  <sodipodi:namedview
     id="base"
     pagecolor="#ffffff"
     bordercolor="#666666"
     borderopacity="1.0"
     inkscape:pageopacity="0.0"
     inkscape:pageshadow="2"
     inkscape:zoom="1.4142136"
     inkscape:cx="780.09858"
     inkscape:cy="197.95846"
     inkscape:document-units="mm"
     inkscape:current-layer="layer1"
     inkscape:document-rotation="0"
     showgrid="false"
     fit-margin-top="6"
     lock-margins="true"
     fit-margin-left="6"
     fit-margin-right="6"
     fit-margin-bottom="6"
     inkscape:window-width="3840"
     inkscape:window-height="1136"
     inkscape:window-x="0"
     inkscape:window-y="27"
     inkscape:window-maximized="1"
     inkscape:snap-page="true" />
  <metadata
     id="metadata64970">
    <rdf:RDF>
      <cc:Work
         rdf:about="">
        <dc:format>image/svg+xml</dc:format>
        <dc:type
           rdf:resource="http://purl.org/dc/dcmitype/StillImage" />
        <dc:title></dc:title>
      </cc:Work>
    </rdf:RDF>
  </metadata>
  <g
     inkscape:label="Layer 1"
     inkscape:groupmode="layer"
     id="layer1"
     transform="translate(-4.3148108,-7.706439)">
    <rect
       style="fill:#333481;fill-opacity:1;stroke-width:0.110915;stroke-linecap:round;stop-color:#000000"
       id="rect1021"
       width="60"
       height="60"
       x="4.3148108"
       y="7.706439" />
    <g
       transform="matrix(1.0414387,8.3916573e-4,-8.3916573e-4,1.0414387,163.87705,-297.38488)"
       id="g6695"
       style="stroke-width:0.203058">
      <g
         id="g6693"
         style="stroke-width:0.203058">
        <g
           transform="matrix(1.1182761,0,0,1.1182761,-290.91861,37.306378)"
           id="g6673"
           style="display:inline;stroke-width:0.203058">
          <path
             id="rect6665"
             style="opacity:1;vector-effect:none;fill:#000000;fill-opacity:1;stroke:none;stroke-width:0.0537256;stroke-linecap:round;stroke-linejoin:round;stroke-miterlimit:4;stroke-dasharray:none;stroke-dashoffset:0;stroke-opacity:0.377953;paint-order:markers fill stroke"
             d="m 141.0497,252.20959 h 5.09323 v 1.98438 h -5.09323 z" />
          <path
             id="rect6667"
             style="opacity:1;vector-effect:none;fill:#000000;fill-opacity:1;stroke:none;stroke-width:0.0537256;stroke-linecap:round;stroke-linejoin:round;stroke-miterlimit:4;stroke-dasharray:none;stroke-dashoffset:0;stroke-opacity:0.377953;paint-order:markers fill stroke"
             d="m 150.57472,252.20959 h 5.09323 v 1.98438 h -5.09323 z" />
          <path
             id="rect6669"
             style="opacity:1;vector-effect:none;fill:#000000;fill-opacity:1;stroke:none;stroke-width:0.0537256;stroke-linecap:round;stroke-linejoin:round;stroke-miterlimit:4;stroke-dasharray:none;stroke-dashoffset:0;stroke-opacity:0.377953;paint-order:markers fill stroke"
             d="m 145.74614,243.14758 h 5.09323 v 1.98438 h -5.09323 z" />
          <path
             style="color:#000000;overflow:visible;opacity:1;vector-effect:none;fill:#ac9565;fill-opacity:1;fill-rule:nonzero;stroke:none;stroke-width:0.0458622;stroke-linecap:butt;stroke-linejoin:miter;stroke-miterlimit:4;stroke-dasharray:none;stroke-dashoffset:0;stroke-opacity:1;paint-order:normal"
             d="m 144.25631,242.49528 c -0.11637,0 -0.21032,0.094 -0.21032,0.21032 v 8.20002 c 0,0.11636 0.094,0.2098 0.21032,0.2098 h 8.20002 c 0.11636,0 0.21032,-0.0934 0.21032,-0.2098 v -8.20002 c 0,-0.11636 -0.094,-0.21032 -0.21032,-0.21032 z m 3.05563,1.16272 h 2.08876 c 0.1882,0 0.33951,0.15131 0.33951,0.33951 0,0.18821 -0.15131,0.33952 -0.33951,0.33952 h -2.08876 c -0.18821,0 -0.33952,-0.15131 -0.33952,-0.33952 0,-0.1882 0.15131,-0.33951 0.33952,-0.33951 z m -7.76697,8.05067 c -0.11637,0 -0.20981,0.094 -0.20981,0.21032 v 8.20002 c 0,0.11636 0.0934,0.21032 0.20981,0.21032 h 8.20053 c 0.11636,0 0.20981,-0.094 0.20981,-0.21032 v -8.20002 c 0,-0.11636 -0.0934,-0.21032 -0.20981,-0.21032 z m 9.42268,0 c -0.11637,0 -0.21032,0.094 -0.21032,0.21032 v 8.20002 c 0,0.11636 0.094,0.21032 0.21032,0.21032 h 8.20002 c 0.11636,0 0.2098,-0.094 0.2098,-0.21032 v -8.20002 c 0,-0.11636 -0.0934,-0.21032 -0.2098,-0.21032 z m -6.36654,1.16272 h 2.08825 c 0.1882,0 0.34003,0.15131 0.34003,0.33951 0,0.18821 -0.15183,0.33952 -0.34003,0.33952 h -2.08825 c -0.1882,0 -0.34003,-0.15131 -0.34003,-0.33952 0,-0.1882 0.15183,-0.33951 0.34003,-0.33951 z m 9.42217,0 h 2.08876 c 0.1882,0 0.33951,0.15131 0.33951,0.33951 0,0.18821 -0.15131,0.33952 -0.33951,0.33952 h -2.08876 c -0.18821,0 -0.34003,-0.15131 -0.34003,-0.33952 0,-0.1882 0.15182,-0.33951 0.34003,-0.33951 z"
             id="path6671"
             inkscape:connector-curvature="0" />
        </g>
        <g
           transform="matrix(0.43450182,0,0,0.43450182,-146.91981,253.85275)"
           style="display:inline;fill:#ffffff;stroke-width:0.203058"
           id="g6691">
          <path
             style="color:#000000;font-style:normal;font-variant:normal;font-weight:normal;font-stretch:normal;font-size:medium;line-height:normal;font-family:sans-serif;font-variant-ligatures:normal;font-variant-position:normal;font-variant-caps:normal;font-variant-numeric:normal;font-variant-alternates:normal;font-feature-settings:normal;text-indent:0;text-align:start;text-decoration:none;text-decoration-line:none;text-decoration-style:solid;text-decoration-color:#000000;letter-spacing:normal;word-spacing:normal;text-transform:none;writing-mode:lr-tb;direction:ltr;text-orientation:mixed;dominant-baseline:auto;baseline-shift:baseline;text-anchor:start;white-space:normal;shape-padding:0;clip-rule:nonzero;display:inline;overflow:visible;visibility:visible;opacity:1;isolation:auto;mix-blend-mode:normal;color-interpolation:sRGB;color-interpolation-filters:linearRGB;solid-color:#000000;solid-opacity:1;vector-effect:none;fill:#ffffff;fill-opacity:1;fill-rule:nonzero;stroke:none;stroke-width:0.53594;stroke-linecap:round;stroke-linejoin:round;stroke-miterlimit:4;stroke-dasharray:none;stroke-dashoffset:0;stroke-opacity:1;color-rendering:auto;image-rendering:auto;shape-rendering:auto;text-rendering:auto;enable-background:accumulate"
             d="m 27.732234,175.75993 c -3.167626,0 -5.763897,2.59627 -5.763897,5.76389 0,3.16765 2.596271,5.76349 5.763897,5.76349 3.167648,0 5.763897,-2.59584 5.763897,-5.76349 0,-3.16762 -2.596249,-5.76389 -5.763897,-5.76389 z m 0,2.63951 c 1.741224,0 3.124407,1.38316 3.124407,3.12438 0,1.74125 -1.383183,3.12441 -3.124407,3.12441 -1.741224,0 -3.124385,-1.38316 -3.124385,-3.12441 0,-1.74122 1.383161,-3.12438 3.124385,-3.12438 z"
             id="path6675"
             inkscape:connector-curvature="0" />
          <path
             d="m 14.236107,186.43228 v -9.8172 h 2.696268 v 3.7333 l 2.986652,-3.7333 h 3.041939 l -3.567376,4.39699 3.816267,5.42021 h -3.097248 l -2.43356,-3.60886 -0.746674,0.77432 v 2.83454 z"
             style="font-style:normal;font-variant:normal;font-weight:900;font-stretch:normal;font-size:64.0488px;line-height:1.25;font-family:Raleway;-inkscape-font-specification:'Raleway Heavy';letter-spacing:0px;word-spacing:0px;fill:#ffffff;fill-opacity:1;stroke:none;stroke-width:0.0701922"
             id="path6677"
             inkscape:connector-curvature="0" />
          <path
             d="m 37.033673,181.60664 v 4.82564 h -2.69629 v -9.8172 h 2.101727 l 3.940703,4.99156 v -4.99156 h 2.696268 v 9.8172 h -2.143198 z"
             style="font-style:normal;font-variant:normal;font-weight:900;font-stretch:normal;font-size:64.0488px;line-height:1.25;font-family:Raleway;-inkscape-font-specification:'Raleway Heavy';letter-spacing:0px;word-spacing:0px;fill:#ffffff;fill-opacity:1;stroke:none;stroke-width:0.0701922"
             id="path6679"
             inkscape:connector-curvature="0" />
          <path
             d="m 46.657273,176.61508 1.921962,6.42957 1.894306,-6.42957 h 2.834541 l -3.608848,9.8172 h -2.239999 l -3.650319,-9.8172 z"
             style="font-style:normal;font-variant:normal;font-weight:900;font-stretch:normal;font-size:64.0488px;line-height:1.25;font-family:Raleway;-inkscape-font-specification:'Raleway Heavy';letter-spacing:0px;word-spacing:0px;fill:#ffffff;fill-opacity:1;stroke:none;stroke-width:0.0701922"
             id="path6681"
             inkscape:connector-curvature="0" />
          <path
             d="m 61.051214,184.08169 v 2.35059 h -6.99648 v -9.8172 h 6.872024 v 2.3506 h -4.175756 v 1.3827 h 3.567376 v 2.18467 h -3.567376 v 1.54864 z"
             style="font-style:normal;font-variant:normal;font-weight:900;font-stretch:normal;font-size:64.0488px;line-height:1.25;font-family:Raleway;-inkscape-font-specification:'Raleway Heavy';letter-spacing:0px;word-spacing:0px;fill:#ffffff;fill-opacity:1;stroke:none;stroke-width:0.0701922"
             id="path6683"
             inkscape:connector-curvature="0" />
          <path
             d="m 64.30053,176.61508 1.756034,4.2449 1.797526,-4.2449 h 2.931321 l -3.387611,6.56785 v 3.24935 h -2.682451 v -3.27701 l -3.332323,-6.54019 z"
             style="font-style:normal;font-variant:normal;font-weight:900;font-stretch:normal;font-size:64.0488px;line-height:1.25;font-family:Raleway;-inkscape-font-specification:'Raleway Heavy';letter-spacing:0px;word-spacing:0px;fill:#ffffff;fill-opacity:1;stroke:none;stroke-width:0.0701922"
             id="path6685"
             inkscape:connector-curvature="0" />
          <path
             d="m 82.15587,186.43228 v -9.8172 h 4.507611 q 0.719019,0 1.327398,0.3042 0.60838,0.29036 1.037036,0.77431 0.442452,0.47013 0.691343,1.09234 0.248892,0.60838 0.248892,1.2306 0,0.85729 -0.373326,1.60394 -0.373348,0.73284 -1.037036,1.20295 l 2.07405,3.60886 h -3.041939 l -1.728379,-3.0143 h -1.009382 v 3.0143 z m 2.696268,-5.3649 h 1.700725 q 0.248891,0 0.456289,-0.27652 0.221237,-0.27655 0.221237,-0.77433 0,-0.5116 -0.248891,-0.77431 -0.24887,-0.27654 -0.497761,-0.27654 h -1.631599 z"
             style="font-style:normal;font-variant:normal;font-weight:900;font-stretch:normal;font-size:64.0488px;line-height:1.25;font-family:Raleway;-inkscape-font-specification:'Raleway Heavy';letter-spacing:0px;word-spacing:0px;fill:#ffffff;fill-opacity:1;stroke:none;stroke-width:0.0701922"
             id="path6687"
             inkscape:connector-curvature="0" />
          <path
             style="color:#000000;font-style:normal;font-variant:normal;font-weight:normal;font-stretch:normal;font-size:medium;line-height:normal;font-family:sans-serif;font-variant-ligatures:normal;font-variant-position:normal;font-variant-caps:normal;font-variant-numeric:normal;font-variant-alternates:normal;font-feature-settings:normal;text-indent:0;text-align:start;text-decoration:none;text-decoration-line:none;text-decoration-style:solid;text-decoration-color:#000000;letter-spacing:normal;word-spacing:normal;text-transform:none;writing-mode:lr-tb;direction:ltr;text-orientation:mixed;dominant-baseline:auto;baseline-shift:baseline;text-anchor:start;white-space:normal;shape-padding:0;clip-rule:nonzero;display:inline;overflow:visible;visibility:visible;opacity:1;isolation:auto;mix-blend-mode:normal;color-interpolation:sRGB;color-interpolation-filters:linearRGB;solid-color:#000000;solid-opacity:1;vector-effect:none;fill:#ffffff;fill-opacity:1;fill-rule:nonzero;stroke:none;stroke-width:0.53594;stroke-linecap:round;stroke-linejoin:round;stroke-miterlimit:4;stroke-dasharray:none;stroke-dashoffset:0;stroke-opacity:1;color-rendering:auto;image-rendering:auto;shape-rendering:auto;text-rendering:auto;enable-background:accumulate"
             d="m 75.651884,175.75993 c -3.167627,0 -5.763897,2.59627 -5.763897,5.76389 0,3.16765 2.59627,5.76349 5.763897,5.76349 3.167648,0 5.763897,-2.59584 5.763897,-5.76349 0,-3.16762 -2.596249,-5.76389 -5.763897,-5.76389 z m 0,2.63951 c 1.741224,0 3.124406,1.38316 3.124406,3.12438 0,1.74125 -1.383182,3.12441 -3.124406,3.12441 -1.741224,0 -3.124385,-1.38316 -3.124385,-3.12441 0,-1.74122 1.383161,-3.12438 3.124385,-3.12438 z"
             id="path6689"
             inkscape:connector-curvature="0" />
        </g>
      </g>
    </g>
  </g>
</svg>
